<svg xmlns="http://www.w3.org/2000/svg" version="1.1" viewBox="0 0 360 200" role="img" aria-label="Isometric cubes"><defs><pattern id="isometric-cubes-e012cae2c4e57cfe51931923fcc69594" patternUnits="userSpaceOnUse" width="38.1051" height="66"><polygon points="0,0 -19.0526,-11 0,-22 19.0526,-11" fill-opacity="0.3" fill="var(--color, #f4715c)"/><polygon points="0,0 19.0526,-11 19.0526,11 0,22" fill-opacity="0.55" fill="var(--color, #f4715c)"/><polygon points="0,0 0,22 -19.0526,11 -19.0526,-11" fill-opacity="0.85" fill="var(--color, #f4715c)"/><polygon points="38.1051,0 19.0526,-11 38.1051,-22 57.1577,-11" fill-opacity="0.3" fill="var(--color, #f4715c)"/><polygon points="38.1051,0 57.1577,-11 57.1577,11 38.1051,22" fill-opacity="0.55" fill="var(--color, #f4715c)"/><polygon points="38.1051,0 38.1051,22 19.0526,11 19.0526,-11" fill-opacity="0.85" fill="var(--color, #f4715c)"/><polygon points="19.0526,33 0,22 19.0526,11 38.1051,22" fill-opacity="0.3" fill="var(--color, #f4715c)"/><polygon points="19.0526,33 38.1051,22 38.1051,44 19.0526,55" fill-opacity="0.55" fill="var(--color, #f4715c)"/><polygon points="19.0526,33 19.0526,55 0,44 0,22" fill-opacity="0.85" fill="var(--color, #f4715c)"/><polygon points="0,66 -19.0526,55 0,44 19.0526,55" fill-opacity="0.3" fill="var(--color, #f4715c)"/><polygon points="0,66 19.0526,55 19.0526,77 0,88" fill-opacity="0.55" fill="var(--color, #f4715c)"/><polygon points="0,66 0,88 -19.0526,77 -19.0526,55" fill-opacity="0.85" fill="var(--color, #f4715c)"/><polygon points="38.1051,66 19.0526,55 38.1051,44 57.1577,55" fill-opacity="0.3" fill="var(--color, #f4715c)"/><polygon points="38.1051,66 57.1577,55 57.1577,77 38.1051,88" fill-opacity="0.55" fill="var(--color, #f4715c)"/><polygon points="38.1051,66 38.1051,88 19.0526,77 19.0526,55" fill-opacity="0.85" fill="var(--color, #f4715c)"/></pattern></defs><rect x="0" y="0" width="360" height="200" fill="url(#isometric-cubes-e012cae2c4e57cfe51931923fcc69594)"/></svg>
